<svg xmlns="http://www.w3.org/2000/svg" width="170" height="170" viewBox="0 0 170 170" fill="#10D9B5">
    <path d="M85 0C38.08 0 0 38.08 0 85C0 96.305 2.21 107.185 6.29 117.045L51 72.25L79.05 95.88L106.93 68H93.5V51H136V93.5H119V80.07L79.985 119L52.02 95.285L14.62 132.685C29.92 155.21 55.76 170 85 170H153C162.35 170 170 162.35 170 153V85C170 38.08 131.92 0 85 0ZM148.75 157.25C144.075 157.25 140.25 153.425 140.25 148.75C140.25 144.075 144.075 140.25 148.75 140.25C153.425 140.25 157.25 144.075 157.25 148.75C157.25 153.425 153.425 157.25 148.75 157.25Z" fill="#10D9B5" />
</svg>