<svg width="226" height="276" viewBox="0 0 226 276" fill="none" xmlns="http://www.w3.org/2000/svg">
<path d="M200.5 25.0909H148.25C143 10.5382 129.25 0 113 0C96.75 0 83 10.5382 77.75 25.0909H25.5C11.75 25.0909 0.5 36.3818 0.5 50.1818V250.909C0.5 264.709 11.75 276 25.5 276H200.5C214.25 276 225.5 264.709 225.5 250.909V50.1818C225.5 36.3818 214.25 25.0909 200.5 25.0909ZM113 25.0909C119.875 25.0909 125.5 30.7364 125.5 37.6364C125.5 44.5364 119.875 50.1818 113 50.1818C106.125 50.1818 100.5 44.5364 100.5 37.6364C100.5 30.7364 106.125 25.0909 113 25.0909ZM200.5 250.909H25.5V50.1818H50.5V87.8182H175.5V50.1818H200.5V250.909Z" fill="black"/>
</svg>
