<svg width="258" height="232" viewBox="0 0 258 232" fill="none" xmlns="http://www.w3.org/2000/svg">
<path d="M58.9356 227.921C56.6367 225.643 55.4872 222.743 55.4872 219.222C55.4872 215.701 56.6367 212.801 58.9356 210.523L118.812 150.871C123.618 146.107 129.575 143.725 136.68 143.725C143.786 143.725 149.742 146.107 154.549 150.871L180.569 176.658L236.683 121.046C239.191 118.56 242.117 117.317 245.46 117.317C248.804 117.317 251.73 118.56 254.238 121.046C256.746 123.531 258 126.482 258 129.9C258 133.318 256.746 136.269 254.238 138.755L198.437 194.367C193.631 199.131 187.727 201.513 180.725 201.513C173.724 201.513 167.82 199.131 163.013 194.367L136.68 168.27L76.4909 227.921C74.192 230.199 71.3183 231.39 67.87 231.494C64.4216 231.597 61.4435 230.406 58.9356 227.921ZM25.079 224.193C18.1823 224.193 12.2782 221.759 7.36695 216.892C2.45565 212.024 0 206.173 0 199.338V25.3547C0 18.5197 2.45565 12.6685 7.36695 7.80108C12.2782 2.93369 18.1823 0.5 25.079 0.5H200.632C207.529 0.5 213.433 2.93369 218.344 7.80108C223.255 12.6685 225.711 18.5197 225.711 25.3547V75.0642C225.711 78.5853 224.509 81.5368 222.106 83.9187C219.702 86.3006 216.724 87.4916 213.171 87.4916H25.079V224.193Z" fill="black"/>
</svg>
