<svg width="226" height="226" viewBox="0 0 226 226" fill="none" xmlns="http://www.w3.org/2000/svg">
<path d="M200.5 25.5V200.5H25.5V25.5H200.5ZM214.25 0.5H11.75C5.5 0.5 0.5 5.5 0.5 11.75V214.25C0.5 219.25 5.5 225.5 11.75 225.5H214.25C219.25 225.5 225.5 219.25 225.5 214.25V11.75C225.5 5.5 219.25 0.5 214.25 0.5ZM100.5 50.5H175.5V75.5H100.5V50.5ZM100.5 100.5H175.5V125.5H100.5V100.5ZM100.5 150.5H175.5V175.5H100.5V150.5ZM50.5 50.5H75.5V75.5H50.5V50.5ZM50.5 100.5H75.5V125.5H50.5V100.5ZM50.5 150.5H75.5V175.5H50.5V150.5Z" fill="black"/>
</svg>
