<svg width="252" height="252" viewBox="0 0 252 252" fill="none" xmlns="http://www.w3.org/2000/svg">
<path d="M126 0C56.448 0 0 56.448 0 126C0 195.552 56.448 252 126 252C195.552 252 252 195.552 252 126C252 56.448 195.552 0 126 0ZM126 207.9C115.542 207.9 107.1 199.458 107.1 189H144.9C144.9 199.458 136.458 207.9 126 207.9ZM189 176.4H63V163.8L75.6 151.2V118.314C75.6 91.602 88.578 68.922 113.4 63V56.7C113.4 49.518 118.818 44.1 126 44.1C133.182 44.1 138.6 49.518 138.6 56.7V63C163.422 68.922 176.4 91.728 176.4 118.314V151.2L189 163.8V176.4Z" fill="black"/>
</svg>
