<?xml version="1.0" standalone="no"?>
<!DOCTYPE svg PUBLIC "-//W3C//DTD SVG 20010904//EN"
 "http://www.w3.org/TR/2001/REC-SVG-20010904/DTD/svg10.dtd">
<svg version="1.0" xmlns="http://www.w3.org/2000/svg"
 width="100.000000pt" height="100.000000pt" viewBox="0 0 100.000000 100.000000"
 preserveAspectRatio="xMidYMid meet">

<g transform="translate(0.000000,100.000000) scale(0.100000,-0.100000)"
fill="#000000" stroke="none">
<path d="M420 868 c-223 -60 -407 -112 -409 -114 -3 -2 21 -100 52 -217 55
-203 57 -217 57 -334 l0 -123 440 0 440 0 0 259 0 260 -22 3 c-20 3 -28 23
-72 191 -38 141 -54 187 -66 186 -8 -1 -197 -51 -420 -111z m418 21 l10 -40
-31 6 c-36 8 -82 45 -70 56 9 8 38 16 64 18 11 1 20 -12 27 -40z m-104 -33
c23 -25 43 -35 78 -40 46 -7 48 -9 58 -49 6 -23 18 -64 26 -91 23 -80 27 -76
-99 -76 l-114 0 -12 56 c-24 107 -132 182 -223 155 -78 -24 -128 -90 -128
-171 l0 -40 -100 0 -100 0 -1 -52 0 -53 -15 45 c-18 59 -20 54 26 96 22 21 40
47 40 58 0 12 6 32 13 46 11 22 38 32 237 87 124 33 238 62 254 62 21 1 38 -8
60 -33z m-207 -87 c40 -15 73 -48 94 -94 35 -76 37 -75 -121 -75 l-140 0 0 41
c0 52 29 101 73 123 38 19 56 20 94 5z m-394 -51 c-5 -29 -36 -67 -54 -68 -8
0 -19 37 -19 62 0 11 12 21 33 27 47 14 47 14 40 -21z m102 -188 c-15 -28 -42
-50 -64 -50 -6 0 -11 18 -11 40 l0 40 45 0 46 0 -16 -30z m614 -18 c17 -32 35
-49 67 -63 l44 -18 0 -110 0 -110 -30 -16 c-16 -8 -37 -29 -45 -45 l-16 -30
-309 0 -309 0 -16 30 c-8 16 -29 37 -45 45 l-30 16 0 110 0 110 44 19 c30 13
50 30 62 52 31 62 15 59 298 56 l261 -3 24 -43z m111 8 c0 -22 -5 -40 -11 -40
-22 0 -49 22 -64 50 l-16 30 46 0 45 0 0 -40z m-772 -372 c18 -18 15 -28 -8
-28 -13 0 -20 7 -20 20 0 23 10 26 28 8z m772 -8 c0 -13 -7 -20 -20 -20 -23 0
-26 10 -8 28 18 18 28 15 28 -8z"/>
<path d="M730 730 c-42 -42 -11 -113 50 -113 61 0 92 71 50 113 -11 11 -33 20
-50 20 -17 0 -39 -9 -50 -20z m77 -36 c3 -8 -2 -23 -11 -32 -15 -15 -17 -15
-32 0 -21 21 -11 48 16 48 11 0 23 -7 27 -16z"/>
<path d="M495 526 c-130 -58 -153 -245 -42 -343 88 -77 216 -42 268 72 71 156
-79 336 -226 271z m125 -45 c42 -22 80 -90 80 -141 0 -78 -71 -160 -140 -160
-69 0 -140 82 -140 160 0 78 71 160 140 160 14 0 41 -8 60 -19z"/>
<path d="M222 377 c-28 -30 -28 -68 1 -95 30 -28 68 -28 95 1 28 30 28 68 -1
95 -30 28 -68 28 -95 -1z m73 -47 c0 -18 -6 -26 -23 -28 -13 -2 -25 3 -28 12
-10 26 4 48 28 44 17 -2 23 -10 23 -28z"/>
<path d="M802 377 c-28 -30 -28 -68 1 -95 30 -28 68 -28 95 1 28 30 28 68 -1
95 -30 28 -68 28 -95 -1z m73 -47 c0 -18 -6 -26 -23 -28 -24 -4 -38 18 -28 44
3 9 15 14 28 12 17 -2 23 -10 23 -28z"/>
</g>
</svg>
