<svg width="21" height="14" viewBox="0 0 21 14" fill="none" xmlns="http://www.w3.org/2000/svg">
<path d="M1.75 7C1.75 7.99167 1.99792 8.89948 2.49375 9.72344C2.98958 10.5474 3.65313 11.1781 4.48438 11.6156C4.68854 11.7323 4.83802 11.9 4.93281 12.1187C5.0276 12.3375 5.03125 12.5562 4.94375 12.775C4.85625 13.0083 4.70312 13.176 4.48438 13.2781C4.26562 13.3802 4.05417 13.3729 3.85 13.2562C2.7125 12.6729 1.78646 11.8307 1.07187 10.7297C0.357292 9.62865 0 8.38542 0 7C0 5.62917 0.346354 4.39687 1.03906 3.30312C1.73177 2.20937 2.63958 1.37083 3.7625 0.7875C3.96667 0.670833 4.18177 0.659896 4.40781 0.754687C4.63385 0.849479 4.79792 1.01354 4.9 1.24687C5.00208 1.45104 5.00938 1.6625 4.92188 1.88125C4.83437 2.1 4.68854 2.26771 4.48438 2.38437C3.65313 2.82187 2.98958 3.4526 2.49375 4.27656C1.99792 5.10052 1.75 6.00833 1.75 7ZM12.25 14C10.3104 14 8.65885 13.3182 7.29531 11.9547C5.93177 10.5911 5.25 8.93958 5.25 7C5.25 5.06042 5.93177 3.40885 7.29531 2.04531C8.65885 0.681771 10.3104 0 12.25 0C13.0667 0 13.8396 0.13125 14.5687 0.39375C15.2979 0.65625 15.9615 1.02083 16.5594 1.4875C16.749 1.63333 16.8438 1.82292 16.8438 2.05625C16.8438 2.28958 16.7563 2.49375 16.5812 2.66875C16.4208 2.82917 16.2203 2.91667 15.9797 2.93125C15.7391 2.94583 15.5167 2.88021 15.3125 2.73438C14.875 2.41354 14.3974 2.16927 13.8797 2.00156C13.362 1.83385 12.8187 1.75 12.25 1.75C10.7917 1.75 9.55208 2.26042 8.53125 3.28125C7.51042 4.30208 7 5.54167 7 7C7 8.45833 7.51042 9.69792 8.53125 10.7188C9.55208 11.7396 10.7917 12.25 12.25 12.25C12.8187 12.25 13.362 12.1661 13.8797 11.9984C14.3974 11.8307 14.875 11.5865 15.3125 11.2656C15.5167 11.1198 15.7391 11.0542 15.9797 11.0687C16.2203 11.0833 16.4208 11.1708 16.5812 11.3313C16.7563 11.5062 16.8438 11.7104 16.8438 11.9437C16.8438 12.1771 16.749 12.3667 16.5594 12.5125C15.9615 12.9792 15.2979 13.3438 14.5687 13.6062C13.8396 13.8687 13.0667 14 12.25 14ZM17.675 7.875H12.25C12.0021 7.875 11.7943 7.79115 11.6266 7.62344C11.4589 7.45573 11.375 7.24792 11.375 7C11.375 6.75208 11.4589 6.54427 11.6266 6.37656C11.7943 6.20885 12.0021 6.125 12.25 6.125H17.675L16.8875 5.3375C16.7271 5.17708 16.6469 4.97292 16.6469 4.725C16.6469 4.47708 16.7271 4.27292 16.8875 4.1125C17.0479 3.95208 17.2521 3.87188 17.5 3.87188C17.7479 3.87188 17.9521 3.95208 18.1125 4.1125L20.3875 6.3875C20.5625 6.5625 20.65 6.76667 20.65 7C20.65 7.23333 20.5625 7.4375 20.3875 7.6125L18.1125 9.8875C17.9521 10.0479 17.7479 10.1281 17.5 10.1281C17.2521 10.1281 17.0479 10.0479 16.8875 9.8875C16.7271 9.72708 16.6469 9.52292 16.6469 9.275C16.6469 9.02708 16.7271 8.82292 16.8875 8.6625L17.675 7.875Z" fill="#CCCCCC"/>
</svg>
