<svg width="226" height="250" viewBox="0 0 226 250" fill="none" xmlns="http://www.w3.org/2000/svg">
<path d="M206.75 18.75L188 0L169.25 18.75L150.5 0L131.75 18.75L113 0L94.25 18.75L75.5 0L56.75 18.75L38 0V175H0.5V212.5C0.5 233.25 17.25 250 38 250H188C208.75 250 225.5 233.25 225.5 212.5V0L206.75 18.75ZM200.5 212.5C200.5 219.375 194.875 225 188 225C181.125 225 175.5 219.375 175.5 212.5V175H63V37.5H200.5V212.5Z" fill="black"/>
<path d="M150.5 62.5H75.5V87.5H150.5V62.5Z" fill="black"/>
<path d="M188 62.5H163V87.5H188V62.5Z" fill="black"/>
<path d="M150.5 100H75.5V125H150.5V100Z" fill="black"/>
<path d="M188 100H163V125H188V100Z" fill="black"/>
</svg>
